<?xml version="1.0" encoding="UTF-8"?><svg id="Layer_2" xmlns="http://www.w3.org/2000/svg" xmlns:xlink="http://www.w3.org/1999/xlink" viewBox="0 0 616 803.49"><defs><style>.cls-1{fill:none;}.cls-2{clip-path:url(#clippath);}</style><clipPath id="clippath"><rect class="cls-1" y="370.49" width="616" height="433"/></clipPath></defs><g id="Layer_1-2"><g class="cls-2"><path id="path2832" d="M346.57,704.28c0-5.29,9.61-7.51,12.47-2.88,1.73,2.8-.37,5.09-4.66,5.09s-7.81-.99-7.81-2.21Zm-55.09-10.61c0-4.3,2.25-6.42,5.01-4.71,2.75,1.7,5.01,5.22,5.01,7.81s-2.25,4.71-5.01,4.71-5.01-3.51-5.01-7.81Zm35.06,3.34c0-4.82,12.18-10.65,21.7-10.39,3.22,.09,1.48,3.47-3.87,7.51-11.04,8.35-17.82,9.44-17.82,2.88h0Zm70.12-9.79c0-2.34,8.95-8.28,19.89-13.22,10.94-4.93,23.68-13.16,28.32-18.29,10.21-11.28,15.23-11.87,15.23-1.81,0,4.13-2.89,7.51-6.43,7.51s-16.45,6.76-28.69,15.03c-23.48,15.84-28.32,17.69-28.32,10.78Zm25.04-.76c0-2.75,3.51-5.01,7.81-5.01s6.42,2.25,4.71,5.01c-1.7,2.76-5.22,5.01-7.81,5.01s-4.71-2.25-4.71-5.01Zm37.89,.52c-1.52-2.47,.6-5.78,4.71-7.36,4.55-1.74,7.48,0,7.48,4.48,0,8.1-7.83,9.94-12.2,2.87h0Zm-159.95-4.49c-1.35-2.18,5.28-3.06,14.73-1.96,9.45,1.1,17.18,2.89,17.18,3.96,0,3.77-29.48,1.92-31.91-2.01h0Zm74.19-3.71c5.35-4.04,11.79-7.35,14.33-7.35,6.34,0,53.58-30.94,53.58-35.1,0-1.85,5.63-5.93,12.52-9.07,6.89-3.14,12.52-4.64,12.52-3.35,0,4.28-21.76,27.48-25.77,27.48-2.16,0-14.48,6.69-27.38,14.87s-25.21,13.78-27.37,12.44c-2.16-1.34-5.35-.14-7.08,2.66-1.73,2.8-5.83,5.02-9.11,4.93-3.28-.08-1.59-3.47,3.76-7.51h0Zm-93.61-.79c-4.82-1.26-8.76-4.17-8.76-6.46s4.51-2.99,10.02-1.55c5.51,1.44,10.02,4.61,10.02,7.04s-.56,4.16-1.25,3.84c-.69-.32-5.2-1.61-10.02-2.87Zm61.35-1.56c0-2.75,2.25-5.01,5.01-5.01s5.01,2.25,5.01,5.01-2.25,5.01-5.01,5.01-5.01-2.25-5.01-5.01Zm140.24,.14c0-6.79,8.9-11.01,12.15-5.75,1.55,2.51-.55,5.86-4.66,7.44-4.12,1.58-7.48,.82-7.48-1.68h0Zm-126.72-6.85c-1.65-4.29-8.61-6.09-19.32-4.97-12.43,1.29-14.23,.66-6.99-2.46,9.35-4.03,9.3-4.32-1.25-7.08-7.45-1.95-11-.62-11,4.11,0,9.8-24.39,7.03-27.62-3.14-2.78-8.75-52.52-36.6-52.52-29.41,0,2.41,8.86,8.91,19.69,14.43,19.8,10.1,30.28,20.21,20.97,20.21-2.75,0-6.4-2.25-8.1-5.01-1.7-2.76-7.04-5.01-11.87-5.01s-13.15-3.94-18.49-8.77c-5.34-4.82-18.16-15.08-28.49-22.79s-18.78-16.4-18.78-19.3,8.13,1.86,18.06,10.58c9.93,8.72,19.51,14.4,21.28,12.63,1.77-1.77-1.28-6.32-6.79-10.1-14.13-9.7-27.61-23.37-33.16-33.63-8.16-15.07,4.41-10,16.74,6.75,6.28,8.53,21.56,21.32,33.96,28.41,12.4,7.09,25.58,15.22,29.3,18.07,3.72,2.85,9.78,5.62,13.48,6.16,3.69,.54,15.76,2.25,26.83,3.8,19.88,2.78,40.08,11.55,46.28,20.09,4.54,6.24,15.2-1.44,11.14-8.02-2.01-3.25-1.03-4,2.44-1.85,4.14,2.56,4.31,6.36,.6,13.29-6.05,11.31-12.71,12.53-16.37,3h0Zm-48.73-18.52c-11.79-7.45-17.77-5.52-7.08,2.29,5.34,3.91,10.78,6.04,12.08,4.74,1.3-1.3-.95-4.46-5-7.03h0Zm-52.66,14.88c-1.82-2.94-6.58-4.09-10.57-2.56-4,1.53-5.99,.72-4.43-1.8,1.56-2.52-1.93-6.1-7.75-7.95-10.14-3.22-29.63-19.63-29.63-24.95,0-3.11,19.76,7.88,28.49,15.85,3.49,3.19,13.15,8.81,21.48,12.49,8.33,3.69,15.14,8.4,15.14,10.49,0,5.66-8.94,4.56-12.73-1.56h0Zm132.84-7.06c5.16-6.22,5.02-7.63-.79-7.63-3.92,0-9.77-2.65-13.01-5.89-4.51-4.51-2.38-8.02,9.14-15.03,17.23-10.48,19.79-11.02,19.79-4.22,0,2.7-5.63,6.33-12.52,8.06-6.89,1.73-12.52,5.15-12.52,7.61,0,8.55,12.06,4.38,26.02-8.99,7.73-7.4,14.05-10.97,14.05-7.93s-6.2,10.15-13.77,15.8c-7.58,5.65-11.43,10.35-8.58,10.43,2.86,.08,13-6.76,22.54-15.21,9.54-8.45,14.68-14.05,11.43-12.44-7.42,3.67-13.63-5.41-6.65-9.73,8.22-5.08,19.8-30.49,22.96-50.37,2.2-13.81,1.39-17.41-3.27-14.53-4.69,2.9-5.41-.9-2.95-15.74,1.78-10.76,3.26-24.63,3.29-30.83,.03-6.2,2.46-11.27,5.4-11.27s3.99,4.27,2.17,10.02c-1.98,6.24-.9,10.02,2.87,10.02,7.45,0,3.04-53.7-5.08-61.82-2.91-2.91-5.3-10.09-5.3-15.95,0-10.93-17.5-57.5-36.66-97.52-14-29.26-44.1-59.97-61.93-63.21-35.69-6.47-72.75,17.17-89.55,57.12-10.59,25.19-9.61,85.35,1.69,103.4,1.84,2.95,3.75,7.97,4.24,11.15,.48,3.19,8.44,16,17.67,28.47,14.44,19.51,18.89,22.42,31.82,20.84,8.26-1.01,17.48-1.99,20.48-2.18,5.53-.34,17.08-21.42,17.08-31.15,0-2.92-6.7,1.87-14.89,10.63-14.57,15.6-27.52,17.07-21.92,2.49,1.57-4.1-.01-7.35-3.58-7.35s-10.52-3.73-15.56-8.29c-5.41-4.89-9.16-5.94-9.16-2.55,0,3.16,4.51,8.56,10.02,12,5.51,3.44,10.02,8.1,10.02,10.34s-4.73,.78-10.51-3.27c-12.48-8.74-25.67-32.41-21.67-38.89,4.41-7.14,12.05,.06,8.87,8.33-1.92,5.01-.49,6.5,4.42,4.62,4-1.53,10.16,.69,13.69,4.95,9.27,11.17,39.7,10.38,39.41-1.02-.12-4.82,1.93-19.21,4.56-31.97,6.76-32.77-10.9-79.02-30.31-79.39-2.23-.04-2.66,2.18-.96,4.93s.74,5.01-2.15,5.01-6.69,9.02-8.45,20.03c-1.76,11.02-5.3,20.03-7.87,20.03s-3.37-2.1-1.78-4.66c1.58-2.56,.55-6.1-2.29-7.86-2.84-1.76-3.51-5.86-1.47-9.11,5.62-8.99,6.15-18.44,1.03-18.44-2.51,0-4.57,4.51-4.57,10.02s-2.43,10.02-5.41,10.02c-6.4,0-.82-31.63,6.05-34.24,2.44-.92,3.42-3.31,2.19-5.3-1.23-1.99,2.81-9.95,8.97-17.68,13.05-16.37,35.56-20.76,51.88-10.12,17.54,11.44,24.33,8.43,11.58-5.14-9.53-10.14-14.88-11.88-29.67-9.62-23.17,3.54-39.42,14.11-49.83,32.41-4.56,8.01-10.25,14.58-12.66,14.6-2.4,.02-1.86-2.99,1.21-6.69,3.07-3.7,4.41-7.89,2.99-9.31-3.47-3.47,36.08-38.94,44.01-39.48,3.44-.23,11.7-1.01,18.37-1.73,11.28-1.22,19.54,4.44,52.26,35.81,8.27,7.93,25.91,42.27,35.17,68.47,2.84,8.03,2.19,8.51-4.28,3.14-4.2-3.48-7.63-9.72-7.63-13.87,0-9.61-29.43-61.35-34.89-61.35-8.83,0-9.12,14.14-.34,16.43,9.36,2.45,28.37,38.92,37.76,72.47,1.74,6.2,5.19,11.27,7.67,11.27s3.22-3.38,1.63-7.51-.63-7.51,2.12-7.51c4.57,0,10.88,16.22,13.65,35.06,.61,4.13,2.86,14.05,5.01,22.03,2.8,10.41,2.29,13.52-1.81,10.98-3.15-1.95-7.15-12.48-8.9-23.4-1.75-10.92-5-20.98-7.22-22.36-7.14-4.41-2.96,19.71,6.36,36.68,10.98,20.01,11.57,39.33,1.5,49.4-4.13,4.13-7.51,11.65-7.51,16.7,0,6.72-2.69,8.49-10.02,6.57-7.18-1.88-10.02-.16-10.02,6.09,0,7.54,1.12,7.79,8.33,1.84,7.14-5.9,7.96-5.8,5.72,.64-1.43,4.13-6.53,7.16-11.34,6.73-4.84-.43-12.32,5.47-16.78,13.25-9.35,16.3-32.35,24.83-60.75,22.55-42.61-3.42-97.03-59.87-103.79-107.65-1.52-10.74-1.01-11.27,3.55-3.72,2.92,4.84,3.93,11.04,2.25,13.77-1.69,2.73-1.25,4.97,.98,4.97,2.23,0,10.29,11.12,17.92,24.7,21.41,38.11,46.86,55.64,84.07,57.89,29.47,1.78,31.28,1.19,47.73-15.76,9.41-9.68,17.1-22.1,17.1-27.59,0-7.59-3.94-4.8-16.49,11.7-13.7,18.01-19.76,21.95-35.83,23.28-10.64,.88-24.59,.29-31-1.32-14.82-3.72-44.49-29.65-62.78-54.87-17.51-24.14-18.71-35.85-1.64-16,6.88,8,12.52,16.17,12.52,18.15,0,6.76,33.31,39.99,36.7,36.61,1.85-1.85,3.37-.84,3.37,2.25,0,8.14,33.73,13.41,41.99,6.55,3.75-3.11,10.86-4.11,15.79-2.22,6.16,2.36,7.83,1.61,5.35-2.42-4.29-6.94-21.5-7.85-23.9-1.27-2.25,6.19-38.66-6.77-48.73-17.36-7.48-7.86-7.18-7.98,4.49-1.79,19.86,10.54,39.99,11.17,50.57,1.6,6.08-5.5,9.53-6.42,9.53-2.54,0,3.34,2.25,4.69,5.01,2.99,2.75-1.7,5.01-5.35,5.01-8.1s-2.25-3.62-5.01-1.91c-5.39,3.33-6.99-3.86-1.97-8.88,6.6-6.6,15.99,8.77,11.05,18.07-8.47,15.95-.47,14.77,9.04-1.33,4.99-8.45,11.98-15.37,15.51-15.37s6.43-2.25,6.43-5.01,2.41-5.01,5.35-5.01,3.99,4.27,2.17,10.02c-1.75,5.51-.95,10.02,1.77,10.02,6.57,0,13.13-28.17,11.67-50.09-1.55-23.22-4.76-31.36-10.9-27.57-3,1.86-5.02-3.59-4.99-13.46,.06-20.82-18.27-73.77-31.06-89.69l-9.66-12.03,8.02,17.53c4.41,9.64,9.89,20.98,12.19,25.21,4.83,8.9,8.83,27.87,12.78,60.59,2.38,19.7,1.4,23.56-6.44,25.61-9.38,2.45-11.2,8.46-11.39,37.6-.06,8.95-2.36,16.28-5.12,16.28s-3.4-2.6-1.44-5.78c2.32-3.76,1.36-4.42-2.75-1.88-4.81,2.97-5.29,1.06-2.03-7.99,5.37-14.88,3.68-84.63-2.19-90.51-2.46-2.46-3.42,2-2.21,10.24,1.18,8.02,.08,15.86-2.44,17.42-2.52,1.56-4.61-3.25-4.64-10.68-.03-7.43-1.67-21.96-3.64-32.29-4.08-21.39-.21-24.92,6.89-6.26,2.62,6.89,8.2,12.52,12.4,12.52,5.81,0,7.64,5.91,7.64,24.75,0,13.61,2.34,26.19,5.19,27.96,4.8,2.96,3.5-26.92-2.41-55.6-2.87-13.9-17.36-42.16-31.23-60.88-9.35-12.62-10.12-15.47-3.47-12.92,5.27,2.02,7.3,1.29,5.31-1.93-4.67-7.55-42.56-12.56-52.53-6.94-6.7,3.77-5.05,4.69,7.76,4.35,18.86-.51,39.51,18.13,56.1,50.64,11.27,22.09,12.15,25.57,6.5,25.57-2.08,0-6.88-6.99-10.66-15.53-5.12-11.57-7.97-13.81-11.16-8.76-3.49,5.52-4.41,5.38-4.96-.75-.37-4.13-.35-9.35,.03-11.6,.39-2.25-4.05-10.76-9.86-18.91-8.53-11.98-13.78-14.61-27.33-13.7-9.23,.62-15.6,3.03-14.16,5.36,1.44,2.32-.11,7.51-3.44,11.52-7.64,9.2-4.63,9.19,13.18-.04,12.72-6.6,14.92-6.48,21.89,1.25,13.79,15.27,21.38,37.94,23.42,69.94,1.43,22.39,.26,31.3-4.12,31.3-4.63,0-4.71,1.41-.32,5.8,4.39,4.39,7.52,4.36,12.92-.11,5.76-4.78,7.55-3.67,9.36,5.82,1.23,6.45,.54,16.08-1.55,21.4-3.33,8.5-3.85,8.15-4.34-2.85-.54-12.31-.67-12.27-7.53,2.5-3.84,8.26-9,17.92-11.47,21.45-5.11,7.32-51.23,14.4-51.35,7.87-.15-7.92-28.52-36.61-32.57-32.95-2.21,2-2.64,1.21-.96-1.74,1.68-2.95-.42-11.97-4.66-20.03-10.07-19.16-12.16-28.65-14.24-64.58-3.24-55.98,28.04-105.44,74.07-117.12,17.35-4.4,24.3-3.66,42.91,4.57,12.22,5.4,23.37,8.67,24.78,7.26,1.41-1.41,1.63-3.13,.48-3.82-23.97-14.38-37.68-18.78-58.5-18.78-21.91,0-27.54,2.4-48.06,20.46-15.83,13.93-23.24,17.94-23.24,12.57,0-4.34,12.39-16.11,27.53-26.17,25.94-17.23,29.26-18.12,57.61-15.55,24.24,2.2,30.95,1.18,34.54-5.24,4.04-7.21,5.73-7.13,17.95,.87,7.42,4.86,14.71,7.62,16.19,6.13,3.83-3.83,31.49,11.16,31.49,17.06,0,7.05-8.81,6.01-11.25-1.34-1.53-4.59-4.15-4.14-10.01,1.72-7.24,7.24-6.05,9.97,13.7,31.17,16.87,18.11,24.51,32.43,34.63,64.92,7.15,22.93,12.99,44.38,12.99,47.66s1.88,5.98,4.17,5.98c5.82,0,5.51-16.23-.46-23.79-2.72-3.44-3.62-6.26-2-6.26s-1.41-10.14-6.72-22.54c-9.09-21.2-8.78-24.88,1.89-22.92,4.23,.78,3.22-5.72-4.24-27.17-3.43-9.88-3.37-9.88,4.44-.3,8.96,11,10.38,25.73,2.93,30.33-3.17,1.96-2.45,8,1.98,16.57,9.49,18.37,18.19,51.99,18.99,73.42,.37,9.74,2.71,17.7,5.2,17.7,5.29,0,.32-45.69-7.05-64.7-2.75-7.11-5.74-16.31-6.64-20.44-.9-4.13-3.19-11.46-5.1-16.28-2.01-5.07-1.2-8.76,1.92-8.76s4.15-3.94,2.63-8.76c-6-19.08,14.46,11.67,30.78,46.26,22.86,48.46,16,52.02-7.71,4.01-21.35-43.23-26.53-46.55-8.3-5.33,6.43,14.54,11.92,27.56,12.2,28.94,.28,1.38,1.68,5.89,3.12,10.02,1.44,4.13,4.94,15.4,7.79,25.04,3.91,13.24,4.74,14.13,3.39,3.64-.98-7.64,0-15,2.18-16.34,5.99-3.7,16.26,50.83,16.78,89.08,.25,18.59,2.14,33.8,4.21,33.81,2.07,0,3.76,2.31,3.76,5.12s-5.63,4.09-12.52,2.84c-10.09-1.83-12.52-.23-12.52,8.19,0,5.76-5.75,18-12.78,27.22-7.03,9.21-10.97,16.72-8.76,16.67,6.98-.14,14.64-7.12,18.11-16.52,1.91-5.18,5.82-7.56,9.09-5.54,5.29,3.27-36.11,47.24-63.27,67.19-9.73,7.15-9.77,7.06-1.25-2.97,11.01-12.97,11.16-17.65,.43-13.54-9.15,3.51-6.47-3.68,7.4-19.82,4.16-4.84,6.04-10.31,4.19-12.16-1.85-1.85-6.86,.98-11.14,6.29-8.67,10.76-8.1,8.4,4.86-20.13,11.09-24.42,14.08-35.78,14.9-56.62,.35-8.95,2.64-16.28,5.09-16.28,6.45,0-.09,46.99-8.91,64.05-6.78,13.12-6.69,15.33,.98,23.11,7.97,8.09,7.96,9-.28,15.12-10.75,7.98-11.23,12.92-1.25,12.92,4.13,0,7.51-3.19,7.51-7.1s2.82-8.41,6.26-10.02c4.97-2.32,4.98-3.52,.05-5.83-4.44-2.07-2.62-7.61,6.35-19.38,7.97-10.44,11.44-19.92,9.49-25.89-2.53-7.77-2.12-8.1,2.33-1.91,4.67,6.49,5.41,6.32,5.48-1.25,.04-4.82-2.18-8.76-4.93-8.76s-5.01-2.04-5.01-4.54,3.94-3.95,8.76-3.22c4.82,.72,5.86,.33,2.32-.87-9.11-3.09-6.77-71.5,2.44-71.5,3.58,0,6.51-3.57,6.51-7.93s-2.82-6.96-6.26-5.77c-3.47,1.2-9.03-4.76-12.47-13.36-6.07-15.15-6.15-14.99-3.57,7.02,2.56,21.86,2.41,22.16-4.91,10.02-7.3-12.1-7.49-11.68-5.69,12.52,2.63,35.25,3.63,37.39,8.25,17.53,2.52-10.84,3.14,2.55,1.62,35.06-2.05,43.99-4.1,54.23-12.52,62.61l-10.07,10.02,5.77-15.03c9.67-25.2,14.11-68.2,7.31-70.81-3.27-1.26-6.37-12.88-6.89-25.84-.52-12.96-1.71-26.94-2.65-31.07s-3.41-14.84-5.48-23.79c-2.07-8.95-5.62-16.28-7.89-16.28s-1.82,6.6,.99,14.67c2.81,8.07,4.35,21.03,3.42,28.8-1.25,10.4-3.98,4.42-10.36-22.7-4.77-20.25-7.41-38.85-5.89-41.32,1.53-2.47,.39-4.49-2.53-4.49s-5.3-7.76-5.3-17.23-2-18.47-4.45-19.99c-2.45-1.51-5.98-8.84-7.85-16.29-4.41-17.56-48.21-72.56-64.9-81.49-18.48-9.89-21.66-2.98-3.55,7.71,8.3,4.91,13.96,10.76,12.57,13.01-1.39,2.25,.99,4.09,5.28,4.09s7.83,1.69,7.85,3.76c.03,2.07,7.35,11.69,16.28,21.39,8.93,9.7,17.11,20.97,18.19,25.04,1.07,4.08,5.73,21.04,10.36,37.7,4.62,16.66,7.57,32.79,6.55,35.85-1.02,3.06,.52,7.04,3.42,8.83,2.9,1.79,5.27,5.66,5.27,8.59,0,3.36-2.78,3.02-7.51-.91-4.13-3.43-7.51-9.75-7.51-14.06s-4.86-18.11-10.8-30.69c-5.94-12.58-12.75-27.38-15.13-32.88-4.05-9.37-3.92-9.42,2.03-.82,17.9,25.87,18.62,26.52,14.9,13.34-1.94-6.89-6.31-17.03-9.7-22.54-5.07-8.24-6.99-8.76-10.81-2.96-5.59,8.51-1.09,23.37,20.22,66.75,2.35,4.78,4.27,12.59,4.27,17.34s5.65,13.24,12.55,18.85c8.91,7.24,13.46,17.11,15.71,34,1.95,14.71,1.24,23.79-1.88,23.79-2.77,0-5.02-3.94-5-8.76,.1-26.08-2.13-36.38-9.45-43.71-4.46-4.46-9.47-6.75-11.12-5.09-1.66,1.66,.11,4.95,3.93,7.31,9.35,5.78,10.8,73.39,1.53,71.54-3.44-.69-6.26,1-6.26,3.76s2.25,5.01,5.01,5.01,5.01,4.72,5.01,10.5c0,14.22-14.97,65.56-21.49,73.68-2.89,3.6-3.18,5.85-.65,5.01,4.56-1.52,7.11,2.11,7.11,10.14,0,4.91-38.4,32.73-52.05,37.7-8.04,2.93-8.51,2.3-3.14-4.18v.02Zm154.56-126.58c-.79-4.82,.21-11.39,2.23-14.61,2.02-3.21,1.54-11.43-1.06-18.27-2.6-6.83-3.37-13.78-1.71-15.45,1.66-1.66,.39-3.02-2.82-3.02-7.18,0-7.78,18.24-.75,22.59,2.8,1.73,3.77,5.28,2.16,7.89-1.61,2.61-5.32,3.27-8.24,1.46-3.19-1.97-4.06-.51-2.16,3.67,1.73,3.83,4.54,10.9,6.24,15.72,1.7,4.82,4.1,8.76,5.33,8.76s1.59-3.94,.79-8.76h0Zm-116.83-209.21c3.04-2.79,1.35-3.26-4.37-1.2-6.92,2.49-8.59,1.45-6.48-4.05,1.66-4.33-3.55-13.8-12.57-22.82-19.44-19.44-24.13-15.9-7.93,5.99,6.76,9.13,13.87,21.05,15.8,26.48,1.97,5.53,5.07,7.74,7.06,5.01,1.95-2.68,5.77-6.92,8.5-9.42h0Zm-9.37-63.06c1.31,0,1.13-2.04-.41-4.54-1.54-2.5-7.06-3.43-12.25-2.07s-10.96,.02-12.81-2.97c-1.85-2.99-6.05-5.39-9.33-5.33-3.28,.06-.33,4.53,6.56,9.93,6.89,5.4,15.52,8.73,19.19,7.4,3.67-1.33,7.75-2.42,9.06-2.42h0Zm-70.82,385.66c-1.7-2.75,1.55-5.01,7.22-5.01s10.31,2.25,10.31,5.01-3.25,5.01-7.22,5.01-8.61-2.25-10.31-5.01Zm157.67-2.39c3.48-4.2,9.44-7.63,13.23-7.63s6.34-2.01,5.65-4.46c-1.3-4.65,20.22-25.59,26.29-25.59s-32.25,38.27-42.03,41.84c-8.04,2.94-8.51,2.31-3.14-4.16h0Zm-182.91-7.94c-4.63-7.49-3.12-8.11,26.49-10.83,28.41-2.61,32.76-1.01,15.03,5.52-23.48,8.65-38.28,10.54-41.51,5.3Zm-31.11-4.85c-6.2-2.49-11.27-5.73-11.27-7.2,0-5.5,18.49-2.39,27.84,4.69,11.35,8.58,2.04,9.99-16.57,2.51h0Zm-31.35-17.43c-6.76-8.14-1.46-9.84,9.35-3,4.13,2.62,4.84,5.51,1.82,7.38-2.74,1.69-7.76-.28-11.16-4.38h0Zm32.55,.36c-8.24-3.47-22.48-12.64-31.65-20.37-10.02-8.45-16.28-11.24-15.68-7.01,.55,3.87,.73,11.26,.4,16.42-.5,7.88-1.83,8.35-8.34,2.95-5.78-4.8-6.22-7.38-1.73-10.15,4.22-2.61,1.82-7.62-8.01-16.72-7.71-7.15-12.41-13-10.43-13s-1.28-6.2-7.24-13.77c-9.11-11.58-24.95-42.97-24.95-49.44,0-1.04,2.21-1.89,4.91-1.89s6.37,5.8,8.15,12.88c1.78,7.08,11.16,24.55,20.85,38.82,21.81,32.11,20.57,30.72,24.24,27.06,1.68-1.68-4.18-13.77-13.02-26.87-20.43-30.28-35.56-66.91-27.63-66.91,2.23,0,14.32,26.18,17.34,37.56,.73,2.76,5.59,10.99,10.8,18.3,5.21,7.31,9.47,14.8,9.47,16.64,0,6.32,14.95,18.29,19.41,15.53,2.45-1.52,10.15,1.72,17.11,7.19,13.72,10.79,23.59,12.87,23.59,4.97,0-5.59,17.67-4.1,23.66,2,2.14,2.18-.62,3.21-6.13,2.3-5.51-.91-10.02,.56-10.02,3.27,0,5.26,1.74,5.76,25.04,7.2,13.09,.81,13.73,1.49,5.01,5.24-8.39,3.61-7.38,4.36,6.26,4.66,8.95,.2,16.28,2.78,16.28,5.76,0,6.38-31.63,.83-34.22-6.02-.92-2.42-6.55-4.36-12.52-4.32-8,.06-9.06,1.21-4.06,4.38,11.71,7.42-1.16,9.98-16.86,3.36h0Zm9.97-7.67c2.53-4.1-6.68-9.72-39.97-24.37-2.75-1.21,.39,3.67,6.99,10.85,6.6,7.18,13.77,11.96,15.93,10.62,2.16-1.34,5.35-.14,7.08,2.66,3.93,6.36,6.16,6.41,9.97,.23h0Zm91.68,1.7c8.85-6.93,16.1-15.97,16.1-20.09,0-5.01,3.07-6.51,9.26-4.55,7.18,2.28,10.45-.74,14.51-13.44,4.3-13.4,5.34-14.28,5.76-4.86,.28,6.33-2.64,17.61-6.49,25.05-8.62,16.67-28.06,35.04-28.06,26.52,0-3.61-2.54-4.49-6.26-2.17-15.61,9.75-19.28,4.83-4.83-6.47h0Zm26.28-9.37c6.8-9.27,6.69-9.5-1.42-3.14-4.82,3.78-8.76,9.23-8.76,12.1s.64,4.29,1.42,3.14,4.72-6.6,8.76-12.1Zm32.75,9.66c-1.92-7.66-1.11-15.92,1.87-18.9,2.91-2.91,5.32-11.03,5.36-18.06,.04-7.02,2.26-16.15,4.93-20.28,8.34-12.91,5.92,20.68-2.69,37.18-6.08,11.65-6.33,15.44-1.26,18.57,4.68,2.9,4.89,5.41,.79,9.52-4.11,4.11-6.49,1.98-9-8.03h0Zm-88.01,2.86c0-2.76-2.9-5.01-6.44-5.01-7.62,0-8.81-19.69-1.25-20.8,2.85-.42,7.44-1.09,10.2-1.49,11.32-1.64,27.55-15.77,27.55-24,0-10.14,6.33-11.14,20.97-3.3,7.51,4.02,9.37,4.01,6.87-.06-3.67-5.94,6.18-39.77,13.99-48.05,3.03-3.21,3.69-2.05,1.83,3.25-1.59,4.54-5.63,22.18-8.97,39.19-3.38,17.17-7.71,28.3-9.74,25.01-2.8-4.53-4.51-4.53-7.29-.06-2,3.24-6.54,4.77-10.09,3.41s-11.45,2.17-17.55,7.86c-8.32,7.75-12.06,8.78-14.95,4.11-2.74-4.43-4.84-4.63-7.28-.69-1.88,3.05-1.52,5.55,.81,5.55s4.58,4.51,4.99,10.02c.42,5.51-.23,10.02-1.44,10.02s-2.19-2.25-2.19-5.01v.06Zm46.9-51.19c-1.87-3.02-4.77-2.31-7.38,1.82-6.85,10.8-5.14,16.1,3,9.35,4.1-3.4,6.07-8.43,4.38-11.16h0Zm-36.88,48.13c0-3.7,21.45-21.6,26.14-21.81,1.98-.09,2.42,2.91,.98,6.67-2.62,6.84-27.11,20.52-27.11,15.15h0Zm-42.57-16.97c-1.7-2.76-.84-5.01,1.91-5.01s6.4,2.25,8.1,5.01c1.7,2.75,.84,5.01-1.91,5.01s-6.4-2.25-8.1-5.01Zm137.73,.59c0-2.76,2.25-6.4,5.01-8.1,2.75-1.7,5.01-.84,5.01,1.91s-2.25,6.4-5.01,8.1c-2.75,1.7-5.01,.84-5.01-1.91Zm-290.49-8.4c0-4.29,2.25-6.42,5.01-4.71,2.75,1.7,5.01,5.22,5.01,7.81s-2.25,4.71-5.01,4.71-5.01-3.51-5.01-7.81Zm31.87-4.27c-41.55-56.09-51.31-73.07-41.97-73.07,2.54,0,8.55,8.45,13.36,18.78,4.81,10.33,10,19.91,11.53,21.29,8.6,7.71,30.92,41.1,28.86,43.16-1.34,1.34-6.64-3.23-11.77-10.16Zm344.16,4.98c-.22-5.28,.97-8.24,2.63-6.57,1.66,1.66,1.84,5.98,.4,9.6-1.6,4-2.79,2.81-3.03-3.03h0Zm-275.82-10.38c-3.4-4.1-8.19-6.22-10.63-4.71-2.44,1.51-4.44-.77-4.44-5.06,0-10.24,.9-10.01,18,4.71,8,6.88,12.01,12.52,8.91,12.52-3.11,0-8.43-3.35-11.84-7.45h0Zm260.4,5.57c0-1.04,3.43-4.74,7.63-8.22,6.38-5.29,7.11-4.98,4.47,1.89-2.69,7.02-12.1,11.94-12.1,6.33h0Zm-63.31-11.88c6.61-23.38,9.1-62.49,3.76-59.2-3.06,1.89-5.57,10.2-5.57,18.47s-1.82,13.9-4.04,12.53c-6.85-4.23-.54-38.16,7.09-38.16,3.83,0,6.96-4.51,6.96-10.02s1.86-10.02,4.12-10.02c4.02,0,3.23,42.56-1.16,62.61-1.21,5.51-2.37,15.09-2.58,21.29-.21,6.2-2.79,11.27-5.73,11.27s-4.23-3.94-2.87-8.76h0Zm-310.6-3.97c-1.63-4.25-1.85-8.85-.48-10.22,1.37-1.37,3.69,2.11,5.16,7.73,3.12,11.93-.35,13.78-4.68,2.49h0Zm16.64-.62c-1.84-1.84-3.34-5.67-3.34-8.51,0-3.14,2.33-2.84,5.93,.75,3.26,3.26,4.76,7.09,3.34,8.51-1.42,1.42-4.09,1.09-5.93-.75h0Zm50.37-32.72c-7.5-11.57-13.64-24.72-13.64-29.22s-1.57-9.75-3.48-11.66c-1.92-1.92-4.01-7.09-4.66-11.51-1.84-12.57,5.09-1.69,18.06,28.35,6.54,15.15,16.26,31.49,21.58,36.31,6.81,6.16,7.62,8.76,2.73,8.76-3.82,0-13.09-9.47-20.59-21.04h0Zm-66.23,6.01c-1.7-2.75-.71-5.01,2.21-5.01s5.3,2.25,5.3,5.01-.99,5.01-2.21,5.01-3.6-2.25-5.3-5.01h0Zm393.16-2.21c0-8.8,3.01-10.09,7.3-3.15,1.58,2.56,.59,6.08-2.21,7.81-2.8,1.73-5.09-.37-5.09-4.66h0Zm-407.98-7.46c-1.58-2.56-.59-6.08,2.21-7.81,2.8-1.73,5.09,.37,5.09,4.66,0,8.8-3.01,10.09-7.3,3.15h0Zm152.66-6.39c-28.48-10.93-40.19-21.97-58.49-55.11-5.97-10.81-12.26-17.19-14.07-14.26-5.54,8.96-11.41,5.91-13.93-7.22-1.32-6.89-.45-12.52,1.92-12.52s4.31,3.38,4.31,7.51,2.25,7.51,5.01,7.51c6.35,0,6.4-10.72,.12-27.22-2.69-7.07-8.36-12.85-12.62-12.85-5.91,0-6.94-3.24-4.36-13.77,1.86-7.58,5.28-14.52,7.61-15.44,6.86-2.71,4.84-10.85-2.69-10.85s-12.92,14.69-13.04,33.81c-.04,6.2-2.31,11.27-5.05,11.27s-4.22-3.94-3.3-8.76c8-41.94,9.33-45.12,17.91-42.87,5.04,1.32,8.76-.52,8.81-4.34,.12-10.68,22.45-59.22,27.26-59.22,6.68,0,5.24,8.08-2.6,14.59-6.39,5.31-16.26,41.09-12.25,44.44,.94,.79-1.67,3.57-5.8,6.18-4.29,2.71-5,4.78-1.65,4.83,3.37,.05,5.62,6.98,5.29,16.35-2.23,64.13,37.08,124.94,86.61,134,10.97,2.01,20.02,2.26,20.12,.56,.43-7.31,23.87-31.29,26.47-27.08,1.58,2.55-2.74,10.68-9.59,18.07-6.85,7.39-10.67,13.47-8.5,13.51,2.18,.06,.58,2.26-3.55,4.93-9.47,6.12-7.5,6.42-39.96-6.05h0Zm-81.94-135.12c-1.39-3.44-2.53-.63-2.53,6.26s1.14,9.7,2.53,6.26,1.39-9.08,0-12.52h0Zm-78.3,114.31c-6.29-16.55-6.62-27.92-.8-27.92,4.59,0,11.95,35.45,8.15,39.25-1.22,1.22-4.53-3.88-7.36-11.33h0Zm248.82,3.47c-4.58-8.17,2.78-41.4,9.17-41.4,4.82,0,5.56,3.74,2.73,13.77-2.14,7.58-2.99,16.38-1.89,19.58,2.28,6.63-6.74,13.89-10.01,8.05h0Zm169.48-2.59c-2.95-9.45-9.88-45.31-10.4-53.84-.76-12.48-18.01-61.09-30.59-86.23-6.51-12.99-21.97-35.04-34.37-49-12.4-13.96-22.45-28.12-22.35-31.47,.11-3.35,10.2,5.18,22.44,18.95,12.23,13.77,22.29,22.36,22.35,19.08s-2.15-7.36-4.91-9.06c-2.75-1.7-5.01-5.49-5.01-8.42,0-3.36,2.78-3.02,7.51,.91,4.13,3.43,7.51,9.47,7.51,13.43s1.89,6.03,4.2,4.6c2.31-1.43,9.22,6.33,15.35,17.23s12.87,19.83,14.99,19.83,6.82,5.56,10.45,12.35c3.64,6.79,8.87,10.95,11.64,9.24,2.77-1.71,3.67-.91,2.01,1.78s.11,10.93,3.94,18.3c3.83,7.38,4.77,13.41,2.09,13.41s-6.27-3.94-7.99-8.76c-4.24-11.91-57.63-82.1-60.37-79.36-1.2,1.2,2.19,8.57,7.55,16.36,5.36,7.79,13.54,20.44,18.19,28.1,4.65,7.66,10.27,12.81,12.5,11.43,2.22-1.38,6.88,7.01,10.35,18.62,3.47,11.62,8.87,22.78,12.01,24.8,4.08,2.63,3.89,3.7-.66,3.76-5.92,.07-10.94-8.65-18.38-31.94-1.67-5.21-4.11-8.4-5.42-7.09-1.32,1.32,2.2,20.23,7.81,42.04,5.61,21.8,10.95,48.1,11.86,58.43,1.63,18.53-.48,24.71-4.29,12.52h0Zm-400.21-2.22c-1.76-1.76-3.17-7.9-3.13-13.64,.06-8.6,.94-9.12,5.01-2.92,4.09,6.22,5.49,5.47,8.18-4.37l3.25-11.89,6.59,11.89c8.02,14.47,8.52,19.4,1.94,19.4-2.75,0-5.01-3.51-5.01-7.81s-2.29-6.39-5.09-4.66c-2.8,1.73-3.89,5.09-2.42,7.46,3.27,5.29-4.86,11-9.32,6.54h0Zm249.45-16.99c-1.85-3-.97-7.84,1.95-10.76,3.75-3.75,5.08-2.15,4.51,5.44-.92,12.25-1.75,12.94-6.46,5.32h0Zm-217.99-.82c-2.1-6.86-5.19-23.47-6.06-32.55-.59-6.2-2.2-11.27-3.58-11.27s-3.19-18.04-4.03-40.07c-.84-22.04,.29-40.06,2.5-40.05,2.22,.01,4.46,15.6,4.98,34.64,.83,30.54,6.25,60.82,14.89,83.35,1.52,3.96,.27,7.2-2.78,7.2s-5.72-.56-5.93-1.25h0Zm-25.51-27.55c-1.11-4.82-.54-16.65,1.26-26.29,1.82-9.74,3.57-12.8,3.94-6.89,.36,5.85,2.07,17.69,3.79,26.29,3.26,16.3-5.31,22.87-8.99,6.89h0Zm36.83-3.74c-3.14-6.9-3.77-12.54-1.4-12.54,4.16,0,11.65,20.55,8.6,23.59-.82,.82-4.06-4.15-7.21-11.05h0Zm-67.43,.82c-5.58-14.19-4.67-21.44,1.87-14.9,3.01,3.01,4.64,9.66,3.61,14.77-1.8,8.97-2,8.97-5.48,.12h0Zm17.04,6.67c-.54-1.38-2.24-11.52-3.77-22.54-2.11-15.18-1.37-18.67,3.06-14.41,3.21,3.09,4.91,13.24,3.77,22.54-1.14,9.3-2.51,15.79-3.06,14.41Zm-35.28-12.1c-.22-5.28,.97-8.24,2.63-6.57,1.66,1.66,1.84,5.98,.4,9.6-1.6,4-2.79,2.81-3.03-3.03h0Zm177.77-3.93c-4.84-6.9-5.84-12.18-2.69-14.13,2.77-1.71,4.42-8.58,3.68-15.27-1-8.99,.83-11.8,7.04-10.78,4.61,.76,10.03-1.28,12.04-4.53,2.3-3.73,1.5-4.58-2.16-2.32-9.07,5.61-12.85-11.31-5.57-24.92,8.51-15.9,12.05-15.37,21.03,3.17,11.07,22.85,6.2,79.81-6.82,79.81-2.73,0-3.69-2.07-2.12-4.6,3.11-5.04-10.17-20.44-17.64-20.44s-5.33,10.07,2.86,13.21c4.13,1.59,7.51,4.9,7.51,7.36,0,8.18-9.35,4.62-17.17-6.55h0Zm31.05-44.18c-3.27-33.99-8.88-39.65-16.09-16.2-2.73,8.89-1.82,10.61,4.39,8.23,5.79-2.22,7.84,.18,7.84,9.21,0,16.35-4.61,20.02-13.71,10.91-8.92-8.92-12.81-6.71-8.41,4.77,1.77,4.62,8.69,8.23,15.78,8.23,12.14,0,12.53-.97,10.21-25.15h0Zm239.88,51.86c-1.84-1.84-3.34-5.67-3.34-8.51,0-3.14,2.33-2.84,5.93,.75,3.26,3.26,4.76,7.09,3.34,8.51-1.42,1.42-4.09,1.09-5.93-.75h0Zm-369.02-24c0-8.8,3.01-10.09,7.3-3.15,1.58,2.56,.59,6.08-2.21,7.81s-5.09-.37-5.09-4.66h0Zm-65.11-12.3c0-9.34,2.08-14.87,4.94-13.1,5.26,3.25,4.31,20.01-1.47,25.79-1.91,1.91-3.47-3.8-3.47-12.69h0Zm80.14,6.68c0-4.29,2.25-6.42,5.01-4.71,2.75,1.7,5.01,5.22,5.01,7.81s-2.25,4.71-5.01,4.71-5.01-3.51-5.01-7.81Zm52.32,3.23c1.56-2.52,.49-5.36-2.37-6.31-2.86-.95-5.05-12.98-4.88-26.72,.18-13.74,.27-30.06,.21-36.26-.06-6.2,2.21-11.27,5.05-11.27,3.17,0,4.47,12.05,3.38,31.3-1.2,21.2,.54,34.94,5.39,42.57,6.39,10.05,6.25,11.27-1.22,11.27-4.61,0-7.11-2.06-5.55-4.58h0Zm16.12-3.77c-1.84-1.84-3.27-6.91-3.19-11.27,.13-6.51,1.1-6.3,5.47,1.21,5.39,9.27,3.83,16.17-2.28,10.06h0Zm-164.54-4.27c-1.86-1.86-2.03-6.92-.38-11.23,2.19-5.72,1.08-6.74-4.1-3.78-5.52,3.15-5.81,2.65-1.29-2.25,8.62-9.33,15.27-4.35,12.01,8.99-1.57,6.41-4.38,10.14-6.24,8.28h0Zm41.39-4.5c-.22-5.28,.97-8.24,2.63-6.57s1.84,5.98,.4,9.6c-1.6,4-2.79,2.81-3.03-3.03h0Zm6.66-11.69c-2.22-4.82-4.26-18.49-4.53-30.38-.3-13-3.39-23.45-7.77-26.22-6.04-3.82-5.78-4.62,1.49-4.68,7.87-.07,11.05-5.63,9.36-16.35-.33-2.07,1.9-3.76,4.95-3.76s4.17,3.59,2.48,7.98c-1.68,4.39-4.43,13.43-6.1,20.09-2.51,10-1.53,11.53,5.61,8.79,7.63-2.93,7.93-1.96,2.52,8.14-3.37,6.31-4.91,19.04-3.4,28.31,3.03,18.67,1.5,21.35-4.61,8.08h0Zm109.52-11.27c-.74-9.76,3.93-13.05,9.96-7.02,3.6,3.6-.98,17.04-5.8,17.04-1.87,0-3.75-4.51-4.16-10.02h0Zm-156.82-12.52c-1.36-20.99,.36-34.34,5.06-39.25,2.21-2.31,2.95,6.71,1.66,20.03-3.02,31.13-5.49,38.18-6.71,19.22h0Zm28.51,.66c-2.07-7.9-2.59-15.55-1.14-16.99,4.03-4.03,8.96,12.1,6.82,22.3-1.4,6.68-2.9,5.28-5.68-5.31h0Zm44.3-3.17c-1.7-2.75-.71-5.01,2.21-5.01s5.3,2.25,5.3,5.01-.99,5.01-2.21,5.01-3.6-2.25-5.3-5.01h0Zm-92.66-9.72c0-2.59,2.25-6.11,5.01-7.81,2.75-1.7,5.01,.42,5.01,4.71s-2.25,7.81-5.01,7.81-5.01-2.12-5.01-4.71Zm35.06-10.61c0-8.43,1.95-14.11,4.34-12.64,4.03,2.49,1.83,27.96-2.42,27.96-1.06,0-1.92-6.89-1.92-15.32Zm49.58-1.37c-2.27-15.15-.05-28.27,7.11-41.91,9.52-18.14,10.19-21.53,4.21-21.53-2.31,0-7.12,6.2-10.67,13.77-3.68,7.84-7.44,11.1-8.72,7.56-3.3-9.12,15.99-31.94,21.96-25.98,3.12,3.12,7.25,.36,11.6-7.78,3.72-6.94,8.63-12.62,10.92-12.62,6.5,0,4.89,8.19-2.89,14.64-9.76,8.1-23.43,38.1-25.76,56.53-1.8,14.24-6.61,24.96-7.75,17.31h0Zm393.32-8.34c-4.02,0-19.94-17.44-30.82-33.76-4.12-6.17-9.53-9.96-12.03-8.41-2.5,1.55,.56,9.65,6.81,18,22.82,30.51,25.02,34.2,20.33,34.2-2.62,0-11.67-9.58-20.1-21.29-17.01-23.61-33.22-41.25-51.73-56.31l-12.27-9.98,12.12,13.72c6.67,7.54,10.61,15.24,8.75,17.09s-14.9-9.44-28.98-25.09c-39.07-43.44-70.12-62.07-76.36-45.8-1.79,4.67-.51,7.54,3.16,7.07,3.4-.44,9.72-.53,14.04-.2,10.63,.8,50.23,35.16,48.86,42.4-.6,3.18,.72,11.13,2.93,17.67,6.91,20.45-7.33,23.34-23.24,4.73-14.53-17-14.85-25.23-.54-13.58,7.6,6.19,8.18,5.92,5.07-2.35-2.64-7.03-1.63-8.61,4.07-6.42,13.4,5.14,7.6-3.86-13.26-20.57-21.14-16.93-29.25-19.98-29.25-10.99,0,2.97-4.86,1.89-11.09-2.47-6.1-4.27-22.38-9.26-36.18-11.09-18.13-2.41-22.35-4.3-15.21-6.82,5.44-1.92,16.58-1.58,24.76,.76,10.95,3.13,16.85,2.27,22.36-3.23,4.49-4.49,5.22-7.48,1.82-7.48-3.12,0-6.52,2.58-7.57,5.73-1.43,4.3-4.58,4.3-12.61,0-5.89-3.15-18.74-5.73-28.56-5.73s-17.86-2.25-17.86-5.01-2.18-5.01-4.85-5.01-3.41,3.94-1.65,8.76c3.01,8.27,2.64,8.28-6.53,.25-6.7-5.86-12.04-7.05-17.13-3.83-5.53,3.5-5.73,4.7-.78,4.75,3.64,.04,9.74,3.2,13.55,7.01,5.9,5.9,4.73,7.37-7.92,9.9-15.26,3.05-44.31,21.08-51.18,31.75-2.13,3.31-6.63,9.03-10.02,12.72-6.83,7.44-18.67,27.29-18.67,31.29,0,1.41,2.25,2.57,5.01,2.57s5.01-2.83,5.01-6.29c0-11.47,42.25-53.39,62-61.51,25.27-10.4,90.3-7.85,72.97,2.85-3.35,2.07-12.77,1.86-20.91-.48-36.22-10.39-81.81,14.67-103.81,57.06-5.07,9.77-10.09,13.29-16.55,11.6-6.65-1.74-10.64,1.35-14.09,10.95-2.65,7.36-6.97,17.88-9.61,23.39-3.78,7.89-4.14,6.83-1.71-5.01h0c8.8-42.82,53.84-102.65,85.03-112.94,21.16-6.98,19.51-11.07-2.67-6.63-8.83,1.77-23.21,10.8-31.95,20.07-16.15,17.12-23.71,20.9-23.71,11.85,0-2.75,3.38-5.01,7.51-5.01s7.51-2.25,7.51-5.01c0-13.6-21.94,2.38-27.56,20.06-1.74,5.49-6.48,9.99-10.52,9.99-9.76,0-3.12-12.14,18.8-34.4,13.33-13.54,14.65-16.5,6.68-14.97-10.36,1.98-42.54,44.66-55.57,73.71-4.15,9.25-8.7,15.66-10.12,14.24-1.42-1.42,.73-8.99,4.78-16.82,4.05-7.83,7.87-16.49,8.49-19.25,.62-2.75,6.49-11.38,13.04-19.17,6.55-7.79,11.91-17,11.91-20.48s5.07-8.82,11.27-11.87c6.2-3.05,19.16-10.42,28.8-16.37,15.85-9.79,16.34-9.85,5.08-.61-21.35,17.53-9.01,15.08,24.95-4.96,17.89-10.56,29.16-19.23,25.04-19.27-6.63-.07-6.63-.63,.02-4.93,6.25-4.04,5.83-4.94-2.5-5.34-8.21-.4-7.51-1.59,3.87-6.64,7.64-3.38,12.22-7.83,10.17-9.87-2.05-2.05,.15-2.23,4.89-.42,5.3,2.04,8.61,.91,8.61-2.94,0-4.6,8.23-5.54,31.3-3.58,24.09,2.05,28.71,1.46,20.03-2.57-13.82-6.42-14.54-11.58-1.62-11.58,5.31,0,8.34,2.12,6.74,4.71s-.82,3.41,1.74,1.83c9.72-6.01,38.39,4.02,42.39,14.83,3.78,10.21,3.15,10.51-11.27,5.49-11.62-4.05-16.21-3.8-19.2,1.04-2.69,4.36-8.44,5.13-18.24,2.43-13.81-3.79-42.24-2.98-67.71,1.93-3.99,.77-2.8,10.95,2.23,18.99,2.01,3.21,.82,7.09-2.65,8.63-3.46,1.54,1.6,2.37,11.24,1.84,11.52-.63,17.1,1.13,16.28,5.14-.72,3.53,4.14,6.1,11.56,6.1s11.48-2.17,9.72-5.01c-1.7-2.75,.07-5.01,3.93-5.01,10.43,0,64.05,19.11,71.91,25.63,3.97,3.3,6.81,3.6,6.81,.72,0-4.47-22.15-16.88-55.09-30.86-10.67-4.53-9.57-4.84,7.39-2.14,10.95,1.75,22.94,6.21,26.65,9.92,3.71,3.71,9.09,6.74,11.95,6.74s16.32,9.3,29.89,20.67c13.58,11.37,25.83,19.52,27.23,18.12,3.24-3.24-43.73-43.73-50.78-43.77-2.89-.02-7.89-2.66-11.11-5.88-8.55-8.55-41.28-19.03-59.72-19.12-8.79-.04-17.38-2.33-19.08-5.08-7.51-12.15,65.78,5.57,92.31,22.32,28.11,17.74,85.49,72.58,85.49,81.7,0,5.48-2.87,4.22-9.92-4.33-5.46-6.62-12.24-14.78-15.06-18.12-2.83-3.35-8.65-4.74-12.94-3.09-4.86,1.86-14.3-3.3-25.01-13.68-9.46-9.17-17.2-14.35-17.2-11.51s6.76,11.19,15.03,18.55,15.03,15.78,15.03,18.7c0,3.09,4.34,3.93,10.37,2.02,7.92-2.51,14.9,1.47,29.54,16.87,10.55,11.09,20.51,18.82,22.15,17.19,1.63-1.63,.52-5.92-2.47-9.52-2.99-3.6-4.39-9.45-3.12-12.98,1.39-3.86,4.9-.93,8.79,7.34,3.56,7.58,7.98,13.77,9.82,13.77s10.64,10.14,19.54,22.54,14.62,22.54,12.71,22.54M283.66,202.8c15.54-11.93,4.45-8.72-17.3,5.01-10.91,6.89-22.13,12.52-24.94,12.52s-5.11,3.31-5.11,7.36c0,7.17,17.72-2.14,47.35-24.89h0Zm59.08-50.9c-3.44-1.39-9.08-1.39-12.52,0-3.44,1.39-.63,2.53,6.26,2.53s9.7-1.14,6.26-2.53Zm-134.95,183.71c3.12-8.26,7.43-15.03,9.58-15.03,5.2,0,4.96,2.24-1.9,17.29-8.15,17.88-14.57,15.98-7.68-2.27h0Zm-108.52-7.51c1.59-4.13,6.3-7.51,10.47-7.51,6.18,0,6.43,1.4,1.36,7.51-3.43,4.13-8.14,7.51-10.47,7.51s-2.94-3.38-1.36-7.51Zm40-12.36c3.08-16.95,11.1-35.21,17.68-40.23,1.8-1.38,3.66-4.76,4.13-7.51,.47-2.75,6.39-15.15,13.16-27.55,9.03-16.52,22.05-28.89,48.79-46.33,20.06-13.08,39.71-23.76,43.66-23.72,6.85,.07-6.34,9.15-27.87,19.19-5.51,2.57-20.28,13.74-32.83,24.82-20.89,18.46-30.01,33.59-64,106.16-5.45,11.63-5.64,11.28-2.71-4.84h0Zm9.61,10.2c-1.58-2.56-.59-6.08,2.21-7.81,2.8-1.73,5.09,.37,5.09,4.66,0,8.8-3.01,10.09-7.3,3.15h0Zm305.73-3.57c-4.19-10.93,1.37-16.01,7.29-6.65,5.92,9.37,6.05,14.88,.34,14.88-2.46,0-5.89-3.7-7.63-8.23h0Zm-333.49-5.23c0-2.57,3.31-9.04,7.35-14.39,6.18-8.17,7.38-8.42,7.51-1.57,.09,4.48-3.22,10.96-7.35,14.39-4.13,3.43-7.51,4.14-7.51,1.57Zm-15.03-5.35c0-2.75,3.38-7.81,7.51-11.24,4.19-3.48,7.51-4.02,7.51-1.23s-3.38,7.81-7.51,11.24c-4.19,3.48-7.51,4.02-7.51,1.23h0Zm-5.01-8.74c-2.75,1.7-5.01-.63-5.01-5.19h0c0-8.94,13.62-35.51,23.79-46.41,3.44-3.69,6.26-9.82,6.26-13.62s3.93-9.1,8.72-11.79c4.8-2.68,7.29-6.31,5.54-8.07-4.56-4.56-27.68,19.78-25.37,26.71,1.06,3.18-1.64,5.78-6,5.78s-7.93,2.25-7.93,5.01-2.52,5.01-5.6,5.01c-8.39,0,18.19-33.89,51.39-65.52,29.35-27.96,33.99-34.65,24.04-34.65-2.92,0-3.7,2.6-1.73,5.78,2.06,3.34,1.39,4.43-1.6,2.58-2.85-1.76-18.22,11.2-34.15,28.8-18.35,20.26-31.63,30.98-36.22,29.22-6.02-2.31-5.83-3.56,1.11-7.45,4.59-2.57,22.55-19.01,39.9-36.53,22.57-22.8,33.09-30.32,36.95-26.46,3.87,3.87,7.74,3.07,13.6-2.79,9.21-9.21,12.49-10.22,12.49-3.83,0,4.55-28.49,33-50.09,50.02-6.89,5.43-10.93,11.46-8.99,13.41,4.42,4.44,53.53-37.98,53.84-46.51,.12-3.44,5.51-6.26,11.98-6.26,14.57,0,44.33-14.38,40.98-19.8-2.29-3.7,23.93-12.69,51.87-17.78,6.57-1.2,13.33-3.7,15.03-5.56,1.69-1.86-4.36-1.96-13.45-.23-11.48,2.19-15.48,1.45-13.09-2.41,6.18-9.99,104.71,4.06,154.83,22.08,8.26,2.97,26.95,13.18,41.53,22.69,24.36,15.88,36.46,18.75,29.13,6.89-7.13-11.53-91.02-46.92-131.81-55.61-24.22-5.16-37.27-9.56-29-9.77,8.26-.22,29.68,3,47.58,7.15,17.91,4.15,35.37,7.86,38.82,8.24,3.44,.38,6.26,2.58,6.26,4.87s2.82,4.19,6.26,4.2c3.44,.02,12.84,3.46,20.89,7.66,8.05,4.2,16.51,5.75,18.81,3.45,2.3-2.3-4.85-8.16-15.88-13.03-11.03-4.87-20.06-10.61-20.06-12.77s11.27,1.48,25.04,8.07c13.77,6.59,25.04,14.28,25.04,17.09s-2.1,3.81-4.66,2.23c-2.56-1.58-6.08-.59-7.81,2.21-1.73,2.8-1.1,5.09,1.39,5.09,6.33,0,26.1,17.71,26.1,23.38,0,2.57-2.66,7.33-5.91,10.59-4.55,4.55-9.47,3.3-21.29-5.4-32.39-23.85-94.91-46.57-139.71-50.77-12.83-1.2-25.6-3.59-28.38-5.31-2.78-1.72-5.05-.74-5.05,2.18s-3.38,5.3-7.51,5.3-7.51,2.25-7.51,5.01c0,5.84,.88,5.86,28.35,.54,16.87-3.27,20.33-2.71,18.17,2.93-1.47,3.83-6.34,6.61-10.82,6.18-26.13-2.52-45.71,.85-45.71,7.88,0,9.7-7.06,9.6-15.2-.21-4.61-5.55-7.94-6.2-11.84-2.3-3.9,3.9-3.4,6.68,1.78,9.88,5.51,3.41,3.73,5.29-7.55,7.99-32.92,7.87-113.31,70.78-122.99,96.25-6.88,18.09-4.96,25.1,3.05,11.1,8.7-15.21,9.76-10.4,1.64,7.42-4.28,9.39-7,11.16-10.02,6.5-3.28-5.08-5.12-4.88-8.88,.96-2.6,4.05-6.31,5.8-8.23,3.88-1.92-1.92-.64-6.93,2.85-11.12,3.48-4.2,4.95-7.63,3.27-7.63s.85-4.92,5.65-10.94c14.18-17.8,66.31-70.46,66.31-66.99,0,1.76,2.82,.82,6.26-2.08,15.16-12.78,44.89-30.18,51.56-30.18,7.24,0,10.73-9.95,3.53-10.09-10.99-.21-70.09,35.63-90.96,55.16-24.8,23.22-60.55,74.85-60.55,87.45,0,3.92-2.25,8.51-5.01,10.21m195.33-167.78c5.85-3.78,4.47-4.87-6.26-4.93-7.58-.04-13.77,2.18-13.77,4.93,0,6.33,10.23,6.33,20.03,0Zm259.19,159.86c-4.82-5.28-7.63-9.6-6.25-9.6s-6.68-8.31-17.92-18.47c-11.24-10.16-29.84-27.18-41.33-37.84-11.49-10.65-35.54-28.25-53.45-39.1-34.3-20.79-35.74-27.02-2.19-9.47,35.87,18.77,42.23,23.1,38.89,26.44-1.82,1.82-1.13,3.31,1.53,3.31s7.07-2.23,9.8-4.96c3.27-3.27,14.26,2,32.3,15.51,15.04,11.26,28.1,22.52,29.03,25.02,.92,2.5,3.74,3.28,6.26,1.72,2.52-1.56,4.58,2.2,4.58,8.35v11.19l-13.48-12.14c-7.41-6.68-22.42-20.5-33.36-30.72-10.93-10.22-21.78-17.41-24.11-15.97-3.6,2.22,28.59,37.05,34.24,37.05,1.08,0,10.16,8.91,20.17,19.81,10.02,10.9,19.53,19,21.13,18.01,1.6-.99,3.24,3.62,3.64,10.24,.4,6.62,.4,11.85,0,11.62-.4-.23-4.67-4.74-9.49-10.02h0Zm-239.15-74.76c0-2.75,2.25-5.01,5.01-5.01s5.01,2.25,5.01,5.01-2.25,5.01-5.01,5.01-5.01-2.25-5.01-5.01Zm209.78-4.31c-6.57-5.13-27.58-19.78-46.68-32.56-19.11-12.78-31.5-23.17-27.55-23.1,3.96,.08,21.79,10.03,39.64,22.13,17.85,12.09,34.53,20.7,37.07,19.13,2.54-1.57,.84-5.63-3.79-9.01-7.37-5.39-7.47-6.52-.76-9.1,4.23-1.62,7.83-.2,8.04,3.16,.57,9.02,3.2,20,7.18,29.89,4.49,11.16,1.71,11.04-13.15-.56h0Zm-425.03-13.46c-.15-6.58,33.69-42.05,57.26-60.03,16.53-12.61,22.76-22.52,13.99-22.25-2.07,.06-17.11,12.44-33.43,27.5-16.32,15.07-30.5,26.57-31.5,25.56-3.5-3.5,35.33-43.16,42.26-43.16,3.84,0,5.69-2.09,4.11-4.65-1.58-2.56,1.67-6.09,7.22-7.85,5.55-1.76,10.09-5.3,10.09-7.87s3-4.67,6.66-4.67,17.75-5.83,31.3-12.96c14.19-7.47,19.21-11.78,11.84-10.17-25.7,5.62-57.83,23.05-79.03,42.89-11.94,11.17-22.4,20.31-23.25,20.31s-3.04-3.88-4.85-8.61-1.76-7.07,.12-5.18c4.41,4.41,22.14-4.98,22.14-11.72,0-2.82-2.6-3.52-5.78-1.55-3.58,2.21-4.42,1.37-2.21-2.21,1.97-3.18,7.95-5.78,13.3-5.78s9.72-2.05,9.72-4.57c0-3.81,43.62-22.36,76.38-32.48,4.82-1.49,8.73-6.72,8.69-11.63-.06-7.25-.92-7.58-4.6-1.78-2.49,3.93-9.78,7.93-16.2,8.9s-25.94,8.42-43.37,16.57c-17.43,8.14-30.95,12.59-30.05,9.88,.9-2.71,3.42-4.36,5.58-3.68,2.17,.69,5.9-1.93,8.3-5.81,4.84-7.83,47.73-25.48,61.93-25.49,4.98,0,7.71-2.19,6.06-4.87-1.65-2.67,3.17-6.41,10.71-8.3,8.72-2.19,14.42-1.33,15.65,2.36,1.06,3.19,4.24,5.8,7.06,5.8s3.91-3.16,2.43-7.02c-1.66-4.32,1.51-8.15,8.23-9.95,17.25-4.63,21.65-3.29,12.37,3.76-4.71,3.58-10.85,12.52-13.65,19.87-4.44,11.69-3.84,13.37,4.81,13.37,5.44,0,9.89-2.3,9.89-5.1s5.07-3.84,11.27-2.3c6.2,1.54,20.28,.51,31.3-2.29l20.03-5.09-26.29,1.65c-24.07,1.51-35.22-3.11-20.03-8.3,3.44-1.18,.63-1.18-6.26-.01-9.11,1.55-11.04,.62-7.08-3.42,8.63-8.8,33.89-12.01,30.78-3.91-1.53,3.98,1.15,6.98,6.61,7.39,6.06,.46,8.24-1.75,6.43-6.49-1.52-3.95-.19-7.18,2.95-7.18s6.99,3.37,8.57,7.48c1.58,4.12,5.13,6.09,7.89,4.38,3.09-1.91,2.4-4.78-1.78-7.48-11.32-7.29,42.11,4.06,85.86,18.24,1.38,.45,11.52,4.87,22.54,9.84,31.44,14.17,12.11,14.55-22.6,.45-39.97-16.24-59.49-19.75-75.07-13.5l-12.52,5.03,12.52-.26c21.06-.44,63.84,10.02,84.86,20.74,10.96,5.59,23.52,10.16,27.93,10.16s6.62,2.25,4.92,4.99c-1.93,3.13-8.79,2.04-18.4-2.93-11.01-5.69-16.84-6.39-20.75-2.49-3.91,3.91-3.12,5.43,2.78,5.43,4.52,0,9.76,2.5,11.65,5.55,2.23,3.6,.14,4.55-5.97,2.7-43.12-13.06-92.56-19.18-136.77-16.95-42.52,2.15-46.28,1.65-37.56-5.05,9.19-7.07,8.99-7.32-3.94-5.08-7.49,1.3-12.43,.43-10.97-1.93,1.46-2.36-1.99-4.28-7.66-4.28s-10.31,2.39-10.31,5.3,2.31,3.88,5.13,2.13c2.82-1.74,4.51-.19,3.76,3.46-.76,3.65,1.61,6.01,5.26,5.26s5.21,.93,3.46,3.76c-1.74,2.82-6.42,5.13-10.39,5.13s-7.22,2.39-7.22,5.3-2.28,3.9-5.06,2.18c-2.78-1.72-10.97,1.53-18.21,7.22-7.23,5.69-15.95,10.34-19.37,10.34s-9.03,3.38-12.46,7.51c-9.08,10.94-.34,8.95,22.54-5.14,22.72-14,31.72-15.94,22.54-4.88-3.43,4.13-4.56,7.51-2.5,7.51s.93,3.38-2.5,7.51-8.64,7.51-11.59,7.51-.98-3.31,4.37-7.35c9.6-7.26,9.6-7.36,.03-7.51-5.33-.09-15.03,4.85-21.55,10.98-9.92,9.31-12.59,9.95-16.34,3.89-4.96-8.02-11.46-3.12-53.14,40.07-11.96,12.4-21.8,20.17-21.87,17.29h0ZM238.25,91.63c-8.81-2.94-64.11,24.83-59.21,29.73,1.52,1.52,16.62-4.16,33.56-12.62,16.94-8.46,28.48-16.16,25.65-17.1h0Zm193.4-1.38c0-2.37-7.33-6.03-16.28-8.13-8.95-2.1-19.66-4.63-23.79-5.63-15.56-3.77-95.96-1.42-103.93,3.04-5.63,3.15,4.53,4.56,31.53,4.36,48.31-.35,96.22,5.24,100.21,11.7,3.27,5.29,12.25,1.37,12.25-5.34Zm37.69,103.53c-27.99-16.88-44.55-28.5-40.6-28.5,7.71,0,58.01,26.96,58.01,31.1,0,5.37-5.57,4.54-17.41-2.59h0Zm-207.98-5.97c3.43-4.13,8.49-7.51,11.24-7.51s2.25,3.32-1.23,7.51c-3.43,4.13-8.49,7.51-11.24,7.51s-2.25-3.32,1.23-7.51Zm67.62-2.5l-20.03-3.59,21.29-.71c11.71-.39,21.29,1.54,21.29,4.3s-.56,4.69-1.25,4.3c-.69-.39-10.27-2.32-21.29-4.3Zm-22.54-11.94c0-1.06,5.63-3,12.52-4.31,6.89-1.32,12.52-.45,12.52,1.92s-5.63,4.31-12.52,4.31-12.52-.86-12.52-1.92Zm123.04-17.88c-5.33-1.93-7.47-4.88-4.77-6.55,5.17-3.19,20.89,4.21,16.81,7.92-1.3,1.18-6.72,.57-12.04-1.37h0Zm-197.57-21.39c5.39-10.07,24.21-19.36,31.04-15.32,2.25,1.33,5.33-2.31,6.85-8.1,1.51-5.79,3.05-10.64,3.42-10.79,.37-.15,13.38-1.46,28.91-2.92,18.12-1.7,29.49-.65,31.7,2.94,2.36,3.82-1.04,4.76-10.72,2.98-19.62-3.62-46.73,2.07-46.73,9.81s-12.73,14.13-33.65,16.75c-3.36,.42-4.95,3.77-3.54,7.44,1.43,3.72-.74,6.68-4.9,6.68-5.76,0-6.31-2.15-2.39-9.46h0Zm246.17-26.95c1.66-1.66,5.98-1.84,9.6-.4,4,1.6,2.81,2.79-3.03,3.03-5.28,.22-8.24-.97-6.57-2.63h0ZM166.2,60.1c4.13-2.67,10.89-4.85,15.03-4.85,6.68,0,6.68,.54,0,4.85-4.13,2.67-10.89,4.85-15.03,4.85-6.68,0-6.68-.54,0-4.85Zm260.44-7.51c-6.89-3.94-18.72-7.24-26.29-7.34-7.58-.1-13.77-2.69-13.77-5.77,0-3.28-5.23-4.59-12.64-3.18-6.95,1.33-13.61,.85-14.79-1.07-1.18-1.92-17.47-2.91-36.19-2.22-19.7,.73-29.86-.36-24.12-2.58,5.46-2.11,33.3-4.14,61.87-4.5,43.29-.55,51.01,.47,46.3,6.15-4.54,5.47-1.93,7.59,13.26,10.74,10.4,2.16,20.39,3.62,22.19,3.24,1.8-.38,4.55,2.62,6.1,6.67,3.54,9.22-5.61,9.16-21.91-.16h0Zm-235.4,.41c0-1.74,5.77-5.36,12.82-8.04,7.8-2.97,11.42-7.14,9.24-10.67-1.97-3.19-1.48-4.5,1.08-2.91,7.1,4.39,63.03-9.93,67.59-17.3,3.11-5.03,5.36-5.14,9.99-.51,6.67,6.67,4.7,7.65-50.64,25.41-17.91,5.75-36.5,11.96-41.32,13.81-4.82,1.85-8.76,1.94-8.76,.2h0ZM297.76,14.5c-.7-9.26,1.15-10.17,15.21-7.45,40.8,7.89,66.55,6.8,60.76-2.56-1.52-2.47-1.59-4.48-.15-4.48s4.95,4.35,7.8,9.67c4.88,9.12,3.18,9.67-30.19,9.78-19.45,.06-39.25,1.35-44,2.85-6.19,1.96-8.86-.25-9.43-7.8h0Zm-58.93-1.81c21.39-6.68,36.66-6.78,32.56-.22-1.38,2.2-13.77,4.56-27.55,5.24l-25.04,1.23,20.03-6.25Z"/></g></g></svg>