<?xml version="1.0" encoding="UTF-8"?><svg id="Layer_2" xmlns="http://www.w3.org/2000/svg" viewBox="0 0 295.92 703.38"><defs><style>.cls-1{stroke-width:6px;}.cls-1,.cls-2,.cls-3{fill:none;stroke-miterlimit:10;}.cls-1,.cls-3{stroke:#139ae5;}.cls-2{stroke:#3c94c6;stroke-width:2px;}</style></defs><g id="Layer_1-2"><g><path class="cls-1" d="M3.08,700.38H118.4l9.81-269.6,5.37-122.45,7.52-99.89,8.06-49.41,5.91,47.8,11.81,105.26,4.83,122.98,6.04,265.3h115.1l-12.59-541.34-14.57-145.54S102.96-10.13,32.07,13.5l-14.49,145L3.08,700.38Z"/><g><rect class="cls-1" x="41.48" y="15.92" width="8.06" height="35.44" transform="translate(3.27 -4.02) rotate(5.25)"/><rect class="cls-1" x="101.63" y="19.68" width="8.06" height="35.44"/><rect class="cls-1" x="190.24" y="19.68" width="8.06" height="35.44" transform="translate(-1.75 10.65) rotate(-3.13)"/><rect class="cls-1" x="251.46" y="16.46" width="8.06" height="35.44" transform="translate(-2.24 30.15) rotate(-6.72)"/></g><path class="cls-1" d="M29.67,44.92s114.93,8.59,131.04,8.06c16.11-.54,104.02-6.98,105.45-8.06s-2.87-26.85-2.87-26.85c0,0-97.21,8.06-106.33,8.06,0,0-117.42-6.98-122.35-8.06l-4.93,26.85Z"/><g><g><ellipse class="cls-3" cx="152.22" cy="41.7" rx="1.19" ry="1.08"/><ellipse class="cls-3" cx="152.22" cy="38.3" rx="1.19" ry="1.08"/><ellipse class="cls-3" cx="156.29" cy="38.3" rx="1.19" ry="1.08"/><ellipse class="cls-3" cx="156.29" cy="41.7" rx="1.19" ry="1.08"/></g><circle class="cls-2" cx="153.99" cy="39.82" r="8.86"/></g></g></g></svg>