<?xml version="1.0" encoding="UTF-8"?><svg id="Layer_2" xmlns="http://www.w3.org/2000/svg" viewBox="0 0 186.93 379"><defs><style>.cls-1{stroke-width:3px;}.cls-1,.cls-2{fill:none;stroke:#139ae5;stroke-miterlimit:10;}</style></defs><g id="Layer_1-2"><g><path class="cls-1" d="M140.73,272.01v-20.33s12.14-29.09,13.38-38.97c1.24-9.88,1.44-72.73-6.69-91.33,0,0-7.71-28.42-6.69-38.95,0,0,3.01-37.53,6.96-46.88s-10.88-14.29-10.88-14.29c0,0-18.53-3.71-22.23-7.41S94.81,1.5,89.87,1.5s-9.88,8.65-19.76,11.12c0,0-25.94,1.24-28.41,11.12-2.47,9.88,0,24.7,2.47,30.88,0,0-1.24,33.35,0,45.7,1.24,12.35-12.35,45.7-12.35,82.76s-1.24,29.64,3.71,43.23c4.94,13.59,19.76,37.06,22.23,42,2.47,4.94,.93,3.71,.93,3.71h82.04Z"/><g><path class="cls-2" d="M48.09,79.32h-5.97s2.26-11.12-16.27-11.12c0,0-13.31,0-14.07,11.12-.76,11.12,.48,19.76,15.3,18.53,0,0,12.35,1.24,13.59-9.88l7.41-.76v-7.89Z"/><path class="cls-2" d="M41.91,132.47h-5.97s2.26-9.92-16.27-9.92c0,0-13.31,0-14.07,9.92-.76,9.92,.48,17.63,15.3,16.53,0,0,12.35,1.1,13.59-8.82l7.41-.68v-7.04Z"/><path class="cls-2" d="M36.97,181.84h-5.97s2.26-9.92-16.27-9.92c0,0-13.31,0-14.07,9.92-.76,9.92,.48,17.63,15.3,16.53,0,0,12.35,1.1,13.59-8.82l7.41-.68v-7.04Z"/></g><g><path class="cls-2" d="M138.84,79.32h5.97s-2.26-11.12,16.27-11.12c0,0,13.31,0,14.07,11.12,.76,11.12-.48,19.76-15.3,18.53,0,0-12.35,1.24-13.59-9.88l-7.41-.76v-7.89Z"/><path class="cls-2" d="M145.02,132.47h5.97s-2.26-9.92,16.27-9.92c0,0,13.31,0,14.07,9.92s-.48,17.63-15.3,16.53c0,0-12.35,1.1-13.59-8.82l-7.41-.68v-7.04Z"/><path class="cls-2" d="M149.96,181.84h5.97s-2.26-9.92,16.27-9.92c0,0,13.31,0,14.07,9.92,.76,9.92-.48,17.63-15.3,16.53,0,0-12.35,1.1-13.59-8.82l-7.41-.68v-7.04Z"/></g><line class="cls-1" x1="66.61" y1="279.43" x2="66.61" y2="379"/><line class="cls-1" x1="133.31" y1="279.43" x2="133.31" y2="379"/><line class="cls-2" x1="123.43" y1="279.43" x2="123.43" y2="379"/><line class="cls-2" x1="113.55" y1="279.43" x2="113.55" y2="379"/><line class="cls-2" x1="106.14" y1="279.43" x2="106.14" y2="379"/><line class="cls-2" x1="96.26" y1="279.43" x2="96.26" y2="379"/><line class="cls-2" x1="86.38" y1="279.43" x2="86.38" y2="379"/><line class="cls-2" x1="75.26" y1="279.43" x2="75.26" y2="379"/><circle class="cls-2" cx="56.73" cy="192.96" r="4.94"/><circle class="cls-2" cx="133.31" cy="189.26" r="4.94"/><circle class="cls-2" cx="56.73" cy="136.14" r="4.94"/><circle class="cls-2" cx="128.37" cy="136.14" r="4.94"/><circle class="cls-2" cx="61.67" cy="83.03" r="4.94"/><circle class="cls-2" cx="118.49" cy="83.03" r="4.94"/><path class="cls-2" d="M56.73,192.96s18.53,63.79,18.53,108.08"/><path class="cls-2" d="M132.08,188.02s-9.26,63.79-9.26,108.08"/><path class="cls-2" d="M57.97,138.61s29.03,112.64,29.03,190.84"/><path class="cls-2" d="M127.76,136.14s-13.59,112.64-13.59,190.84"/><path class="cls-2" d="M61.67,83.03s33.97,133.78,33.97,226.66"/><path class="cls-2" d="M119.11,80.56s-13.59,133.78-13.59,226.66"/></g></g></svg>