<?xml version="1.0" encoding="UTF-8"?><svg id="Layer_2" xmlns="http://www.w3.org/2000/svg" viewBox="0 0 533.53 536"><defs><style>.cls-1{stroke-width:3px;}.cls-1,.cls-2,.cls-3,.cls-4{fill:none;stroke:#139ae5;stroke-miterlimit:10;}.cls-2{stroke-width:5px;}.cls-3{stroke-width:2px;}</style></defs><g id="Layer_1-2"><g><g><circle class="cls-3" cx="145.5" cy="151.5" r="24"/><line class="cls-1" x1="132.5" y1="153.5" x2="121.5" y2="151.5"/></g><g><circle class="cls-3" cx="254.5" cy="151.5" r="24"/><line class="cls-1" x1="262.03" y1="140.72" x2="271.08" y2="134.15"/></g><g><circle class="cls-3" cx="384.5" cy="151.5" r="24"/><line class="cls-1" x1="382.26" y1="138.54" x2="384.05" y2="127.5"/></g><g><path class="cls-2" d="M43.5,533.5l445-4s18,2,20-18l22-439s4-6-10-21l-21-40s-2-5-16-9H43.5s-10,0-16,10L2.5,68.5v19.21l22,426.79s0,16,19,19Z"/><polygon class="cls-2" points="459 483 478 96 54.57 96 71 484 459 483"/></g><line class="cls-2" x1="458" y1="191" x2="83.12" y2="191"/><g><line class="cls-4" x1="101.39" y1="154.28" x2="113.61" y2="150.72"/><line class="cls-4" x1="175.41" y1="150.65" x2="187.59" y2="154.35"/><line class="cls-4" x1="111.86" y1="122.56" x2="123.14" y2="128.44"/><line class="cls-4" x1="145.5" y1="110.14" x2="145.5" y2="122.86"/><line class="cls-4" x1="176.65" y1="121.76" x2="166.35" y2="129.24"/></g><g><line class="cls-4" x1="211.39" y1="154.28" x2="223.61" y2="150.72"/><line class="cls-4" x1="285.41" y1="150.65" x2="297.59" y2="154.35"/><line class="cls-4" x1="221.86" y1="122.56" x2="233.14" y2="128.44"/><line class="cls-4" x1="255.5" y1="110.14" x2="255.5" y2="122.86"/><line class="cls-4" x1="286.65" y1="121.76" x2="276.35" y2="129.24"/></g><g><line class="cls-4" x1="341.39" y1="154.28" x2="353.61" y2="150.72"/><line class="cls-4" x1="415.41" y1="150.65" x2="427.59" y2="154.35"/><line class="cls-4" x1="351.86" y1="122.56" x2="363.14" y2="128.44"/><line class="cls-4" x1="385.5" y1="110.14" x2="385.5" y2="122.86"/><line class="cls-4" x1="416.65" y1="121.76" x2="406.35" y2="129.24"/></g></g></g></svg>