<?xml version="1.0" encoding="UTF-8"?><svg id="Layer_2" xmlns="http://www.w3.org/2000/svg" viewBox="0 0 439.5 213.5"><defs><style>.cls-1{fill:#c5d8ea;stroke:#f2f5f7;stroke-width:2px;}.cls-1,.cls-2{stroke-miterlimit:10;}.cls-2{fill:#fff;stroke:#000;}.cls-3{font-family:AdobeMingStd-Light-B5pc-H, 'Adobe Ming Std';font-size:26.09px;}</style></defs><g id="Layer_1-2"><g><rect class="cls-1" x="1" y="1" width="437.5" height="211.5" rx="10.02" ry="10.02"/><rect class="cls-2" x="52" y="41" width="118" height="118"/><ellipse class="cls-2" cx="114" cy="93.5" rx="17" ry="20.5"/><path class="cls-2" d="M108,113.5v10.76s-53.42,11.44-40.19,23.24"/><path class="cls-2" d="M120,113.5v10.76s53.42,11.44,40.19,23.24"/><text/><path d="M114,73s-4.5,13.5-8.5,14.5-2,7-7,13-3-8-3-8c0,0,4.5-21.99,9.25-20.99s14.86-5.01,20.8,1.49,9.25,10.26,8.95,18.5c-.26,7.09,.16,3.43-.71,8.5-.86,4.97-5.29-.5-4.29-2.5s-2-6-3-8"/><text class="cls-3" transform="translate(233.94 113.46)"><tspan x="0" y="0" xml:space="preserve"> ジミー桜井 </tspan></text></g></g></svg>