<svg xmlns="http://www.w3.org/2000/svg" viewBox="0 0 190.74 190.74"><defs><style>.cls-1,.cls-2,.cls-3{fill:none;}.cls-1{stroke:#707070;}.cls-3{stroke:#676767;stroke-width:2px;}.cls-4{fill:#bc002d;}.cls-5{font-size:10px;fill:#fff;font-family:FenwickLt-Regular, Fenwick;letter-spacing:0.01em;}.cls-6{letter-spacing:-0.14em;}</style></defs><g id="Layer_2" data-name="Layer 2"><g id="Layer_1-2" data-name="Layer 1"><g id="Ellipse_7" data-name="Ellipse 7"><circle cx="95.37" cy="95.37" r="94.94"/><circle class="cls-1" cx="95.37" cy="95.37" r="94.87"/></g><g id="Ellipse_3" data-name="Ellipse 3"><circle class="cls-2" cx="95.16" cy="95.3" r="55.62"/><circle class="cls-3" cx="95.16" cy="95.3" r="55.48"/></g><g id="Ellipse_4" data-name="Ellipse 4"><circle class="cls-2" cx="95.23" cy="95.37" r="58.05"/><circle class="cls-3" cx="95.23" cy="95.37" r="57.91"/></g><g id="Ellipse_5" data-name="Ellipse 5"><circle class="cls-2" cx="95.16" cy="95.3" r="61.86"/><circle class="cls-3" cx="95.16" cy="95.3" r="61.72"/></g><g id="Ellipse_6" data-name="Ellipse 6"><circle class="cls-2" cx="95.3" cy="95.44" r="65.47"/><circle class="cls-3" cx="95.3" cy="95.44" r="65.33"/></g><g id="Ellipse_8" data-name="Ellipse 8"><circle class="cls-2" cx="95.37" cy="95.51" r="71.5"/><circle class="cls-3" cx="95.37" cy="95.51" r="71.36"/></g><g id="Ellipse_9" data-name="Ellipse 9"><circle class="cls-2" cx="95.44" cy="95.3" r="76.7"/><circle class="cls-3" cx="95.44" cy="95.3" r="76.56"/></g><g id="Ellipse_10" data-name="Ellipse 10"><circle class="cls-2" cx="95.51" cy="95.37" r="81.35"/><circle class="cls-3" cx="95.51" cy="95.37" r="81.21"/></g><g id="Ellipse_11" data-name="Ellipse 11"><circle class="cls-2" cx="95.58" cy="95.58" r="86.97"/><circle class="cls-3" cx="95.58" cy="95.58" r="86.83"/></g><circle class="cls-4" cx="95.24" cy="95.01" r="51.62"/><text class="cls-5" transform="translate(71.59 82.75)">HOUSES<tspan x="16.44" y="12">OF</tspan><tspan x="13.09" y="24">THE</tspan><tspan x="9.54" y="36">HO</tspan><tspan class="cls-6" x="26.69" y="36">L</tspan><tspan x="32.03" y="36">Y</tspan></text></g></g></svg>